<svg id="katman_1" data-name="katman 1" xmlns="http://www.w3.org/2000/svg" xmlns:xlink="http://www.w3.org/1999/xlink" viewBox="0 0 975.74 536"><defs><linearGradient id="Adsız_degrade_2" x1="666.86" y1="406.98" x2="1206.6" y2="798.53" gradientUnits="userSpaceOnUse"><stop offset="0" stop-color="#bfbebe"/><stop offset="0.1" stop-color="#bababa"/><stop offset="0.16" stop-color="#b5b5b6"/><stop offset="0.34" stop-color="#b4b4b5"/><stop offset="0.41" stop-color="#c2c2c3"/><stop offset="0.52" stop-color="#e1e1e1"/><stop offset="0.7" stop-color="#bfbebe"/><stop offset="0.86" stop-color="#b5b5b6"/><stop offset="1" stop-color="#b4b4b5"/></linearGradient><linearGradient id="Adsız_degrade_2-2" x1="729.23" y1="321.01" x2="1268.97" y2="712.55" xlink:href="#Adsız_degrade_2"/><linearGradient id="linear-gradient" x1="662.16" y1="413.46" x2="1201.91" y2="805" gradientUnits="userSpaceOnUse"><stop offset="0" stop-color="#ac6c29"/><stop offset="0.16" stop-color="#c5833c"/><stop offset="0.46" stop-color="#efab5d"/><stop offset="1" stop-color="#9e6527"/></linearGradient><linearGradient id="linear-gradient-2" x1="738.72" y1="307.92" x2="1278.46" y2="699.47" xlink:href="#linear-gradient"/><linearGradient id="Adsız_degrade_3" x1="529.1" y1="814.76" x2="529.1" y2="692.3" gradientUnits="userSpaceOnUse"><stop offset="0" stop-color="#bfbebe"/><stop offset="0.1" stop-color="#bababa"/><stop offset="0.16" stop-color="#b5b5b6"/><stop offset="0.34" stop-color="#b4b4b5"/><stop offset="0.7" stop-color="#bfbebe"/><stop offset="0.86" stop-color="#b5b5b6"/><stop offset="1" stop-color="#b4b4b5"/></linearGradient><linearGradient id="Adsız_degrade_2-3" x1="633.59" y1="814.76" x2="633.59" y2="692.3" xlink:href="#Adsız_degrade_2"/><linearGradient id="Adsız_degrade_2-4" x1="735.66" y1="814.76" x2="735.66" y2="692.3" xlink:href="#Adsız_degrade_2"/><linearGradient id="Adsız_degrade_2-5" x1="382.34" y1="542.76" x2="382.34" y2="420.3" xlink:href="#Adsız_degrade_2"/><linearGradient id="linear-gradient-3" x1="492.83" y1="542.76" x2="492.83" y2="420.3" xlink:href="#linear-gradient"/><linearGradient id="Adsız_degrade_2-6" x1="493.71" y1="542.76" x2="493.71" y2="420.3" xlink:href="#Adsız_degrade_2"/><linearGradient id="Adsız_degrade_2-7" x1="591.86" y1="542.76" x2="591.86" y2="420.3" xlink:href="#Adsız_degrade_2"/><linearGradient id="Adsız_degrade_2-8" x1="690.28" y1="542.76" x2="690.28" y2="420.3" xlink:href="#Adsız_degrade_2"/><linearGradient id="Adsız_degrade_2-9" x1="1262.45" y1="814.76" x2="1262.45" y2="692.3" xlink:href="#Adsız_degrade_2"/><linearGradient id="Adsız_degrade_2-10" x1="1372.68" y1="814.76" x2="1372.68" y2="692.3" xlink:href="#Adsız_degrade_2"/><linearGradient id="Adsız_degrade_2-11" x1="1436.38" y1="814.76" x2="1436.38" y2="692.3" xlink:href="#Adsız_degrade_2"/><linearGradient id="Adsız_degrade_2-12" x1="1435.78" y1="814.76" x2="1435.78" y2="692.3" xlink:href="#Adsız_degrade_2"/></defs><path d="M933.09,439.91Q883.76,534.64,863.87,568q-9,15.12-17.79,30.38c-7.08,12.35-25.86,45.56-35.91,63.68H753.91c6.72-12.38,26-46.82,31.21-56.39q12.87-23.8,26-47.54,23.42-42.46,47.33-84.7c16.27-28.64,31.55-57,46.58-85.6Z" transform="translate(-472.13 -272)" fill="url(#Adsız_degrade_2)"/><path d="M1080.49,573a7.09,7.09,0,0,1-.69,1.11L1068,574l-173.53-1.23a1.87,1.87,0,0,1-1.61-2.78q10.26-18.25,20.39-35.91a32.07,32.07,0,0,1,5-6.72,2.57,2.57,0,0,1,1.88-.78l78.22,0a.62.62,0,0,0,.54-.93q-9.51-16-18.69-32.26L914,370.55l9.84-14.29h36.45l73.73,134.54q20.31,36.91,41.41,72.89c1.58,2.73,3.2,5.45,4.78,8.17A1.39,1.39,0,0,1,1080.49,573Z" transform="translate(-472.13 -272)" fill="url(#Adsız_degrade_2-2)"/><path d="M1079.44,622.74l10.12.08a205.76,205.76,0,0,1-55.45,39.25h-168c7.12-13,14.44-26.08,21.93-39.11.34-.61.7-1.21,1-1.82,1.7.17,3.38.27,5.11.29l109.77.78Z" transform="translate(-472.13 -272)" fill="url(#linear-gradient)"/><path d="M1150.23,477.17a204,204,0,0,1-18.27,84.7q-16.5-28.87-32.62-58.12v0a154.94,154.94,0,0,0,2.28-26.55,156.57,156.57,0,0,0-313.14,0c0,4.72.21,9.42.66,14.05q-17.45,30.94-34.68,62a204.88,204.88,0,0,1-14.59-76.09C739.87,363.85,831.75,272,945,272S1150.23,363.85,1150.23,477.17Z" transform="translate(-472.13 -272)" fill="url(#linear-gradient-2)"/><path d="M513.44,711.34l-41.31,94.5h32.4l6.33-16.47H546.8l6.33,16.47h32.94l-41.31-94.5Zm6.24,55.08,9.15-23.81L538,766.42Z" transform="translate(-472.13 -272)" fill="url(#Adsız_degrade_3)"/><path d="M661,771.14a32.49,32.49,0,0,1-9.25,8.17,22.45,22.45,0,0,1-11.4,2.9,24.15,24.15,0,0,1-9.05-1.62,19,19,0,0,1-6.95-4.72,21.93,21.93,0,0,1-4.53-7.49,30.39,30.39,0,0,1,0-19.58,21.93,21.93,0,0,1,4.53-7.49,19.06,19.06,0,0,1,6.95-4.73,24.15,24.15,0,0,1,9.05-1.62,22.55,22.55,0,0,1,11.4,2.9A32.65,32.65,0,0,1,661,746l20.12-17.95a45.7,45.7,0,0,0-17.76-14,59.15,59.15,0,0,0-24.64-4.87,60.11,60.11,0,0,0-21,3.58A49.56,49.56,0,0,0,601,723a46.43,46.43,0,0,0-11,15.66,52.88,52.88,0,0,0,0,40,46.43,46.43,0,0,0,11,15.66,49.38,49.38,0,0,0,16.74,10.19,59.88,59.88,0,0,0,21,3.58,58.37,58.37,0,0,0,24.64-4.93,46.75,46.75,0,0,0,17.76-14Z" transform="translate(-472.13 -272)" fill="url(#Adsız_degrade_2-3)"/><path d="M720,711.34l-41.31,94.5h32.4l6.33-16.47h35.94l6.33,16.47h32.94l-41.31-94.5Zm6.24,55.08,9.15-23.81,9.15,23.81Z" transform="translate(-472.13 -272)" fill="url(#Adsız_degrade_2-4)"/><polygon points="412.58 439.34 382.64 489.63 351.82 439.34 325.63 439.34 325.63 533.84 354.66 533.84 354.66 492.23 375.18 525.33 389.22 525.33 409.78 490.74 410.01 533.84 439.04 533.84 438.77 439.34 412.58 439.34" fill="url(#Adsız_degrade_2-5)"/><rect x="454.43" y="439.34" width="76.81" height="24.04" fill="url(#linear-gradient-3)"/><polygon points="533 509.81 533 533.85 454.43 533.85 454.43 474.44 525.71 474.44 525.71 497.4 485.76 497.4 485.76 509.81 533 509.81" fill="url(#Adsız_degrade_2-6)"/><polygon points="607.39 482.31 571.48 439.34 545.29 439.34 545.29 533.84 576.34 533.84 576.34 490.87 612.25 533.84 638.44 533.84 638.44 439.34 607.39 439.34 607.39 482.31" fill="url(#Adsız_degrade_2-7)"/><polygon points="646.67 464.04 674.35 464.04 674.35 533.84 706.21 533.84 706.21 464.04 733.89 464.04 733.89 439.34 646.67 439.34 646.67 464.04" fill="url(#Adsız_degrade_2-8)"/><path d="M1300.65,723.15a50.19,50.19,0,0,0-16.87-10.33,64,64,0,0,0-42.6,0,50.11,50.11,0,0,0-16.94,10.33,47.62,47.62,0,0,0-11.14,15.66,51,51,0,0,0,0,39.49A47.59,47.59,0,0,0,1224.24,794a50.24,50.24,0,0,0,16.94,10.32,64,64,0,0,0,42.6,0A50.32,50.32,0,0,0,1300.65,794a47.45,47.45,0,0,0,11.14-15.73,51,51,0,0,0,0-39.49A47.48,47.48,0,0,0,1300.65,723.15ZM1282,768.51a21.18,21.18,0,0,1-4.52,7.43,20.1,20.1,0,0,1-6.75,4.65,22.1,22.1,0,0,1-16.61,0,20.1,20.1,0,0,1-6.75-4.65,21.32,21.32,0,0,1-4.52-7.43,31.21,31.21,0,0,1,0-19.85,21.37,21.37,0,0,1,4.52-7.42,20.13,20.13,0,0,1,6.75-4.66,22.1,22.1,0,0,1,16.61,0,20.13,20.13,0,0,1,6.75,4.66,21.22,21.22,0,0,1,4.52,7.42,31.21,31.21,0,0,1,0,19.85Z" transform="translate(-472.13 -272)" fill="url(#Adsız_degrade_2-9)"/><path d="M1384,805.84h34l-19.83-29.07a32.52,32.52,0,0,0,12.54-11q5.27-7.89,5.27-18.83a32.62,32.62,0,0,0-20.19-31.33q-9.65-4.3-22.88-4.31h-45.5v94.5h31.87V782.08h8.67Zm-3.31-67a11.91,11.91,0,0,1,0,16.2c-2.11,2-5.38,3-9.78,3h-11.61V735.91h11.61C1375.26,735.91,1378.53,736.9,1380.64,738.88Z" transform="translate(-472.13 -272)" fill="url(#Adsız_degrade_2-10)"/><path d="M1441.85,727.44l-2.75-4h0A4.14,4.14,0,0,0,1441,722a4.72,4.72,0,0,0,0-4.78,4.12,4.12,0,0,0-1.86-1.54,6.9,6.9,0,0,0-2.85-.54h-5.35v12.35h2.87V724h2.6l2.4,3.47Zm-3.77-9.47a2,2,0,0,1,.66,1.58,2,2,0,0,1-.66,1.59,3,3,0,0,1-2,.57h-2.32v-4.29h2.32A3.05,3.05,0,0,1,1438.08,718Z" transform="translate(-472.13 -272)" fill="url(#Adsız_degrade_2-11)"/><path d="M1435.78,711a10.26,10.26,0,1,1-10.25,10.26A10.26,10.26,0,0,1,1435.78,711m0-1.84a12.09,12.09,0,1,0,12.09,12.1,12.09,12.09,0,0,0-12.09-12.1Z" transform="translate(-472.13 -272)" fill="url(#Adsız_degrade_2-12)"/></svg>